%TF.GenerationSoftware,KiCad,Pcbnew,(6.0.2)*%
%TF.CreationDate,2022-12-20T22:03:32-08:00*%
%TF.ProjectId,split_supply_generator,73706c69-745f-4737-9570-706c795f6765,rev?*%
%TF.SameCoordinates,Original*%
%TF.FileFunction,Soldermask,Top*%
%TF.FilePolarity,Negative*%
%FSLAX46Y46*%
G04 Gerber Fmt 4.6, Leading zero omitted, Abs format (unit mm)*
G04 Created by KiCad (PCBNEW (6.0.2)) date 2022-12-20 22:03:32*
%MOMM*%
%LPD*%
G01*
G04 APERTURE LIST*
G04 Aperture macros list*
%AMRoundRect*
0 Rectangle with rounded corners*
0 $1 Rounding radius*
0 $2 $3 $4 $5 $6 $7 $8 $9 X,Y pos of 4 corners*
0 Add a 4 corners polygon primitive as box body*
4,1,4,$2,$3,$4,$5,$6,$7,$8,$9,$2,$3,0*
0 Add four circle primitives for the rounded corners*
1,1,$1+$1,$2,$3*
1,1,$1+$1,$4,$5*
1,1,$1+$1,$6,$7*
1,1,$1+$1,$8,$9*
0 Add four rect primitives between the rounded corners*
20,1,$1+$1,$2,$3,$4,$5,0*
20,1,$1+$1,$4,$5,$6,$7,0*
20,1,$1+$1,$6,$7,$8,$9,0*
20,1,$1+$1,$8,$9,$2,$3,0*%
G04 Aperture macros list end*
%ADD10RoundRect,0.250000X-0.475000X0.250000X-0.475000X-0.250000X0.475000X-0.250000X0.475000X0.250000X0*%
%ADD11RoundRect,0.250000X0.475000X-0.250000X0.475000X0.250000X-0.475000X0.250000X-0.475000X-0.250000X0*%
%ADD12R,0.900000X1.200000*%
%ADD13RoundRect,0.250000X-0.450000X0.262500X-0.450000X-0.262500X0.450000X-0.262500X0.450000X0.262500X0*%
%ADD14R,5.400000X2.900000*%
%ADD15R,1.700000X1.700000*%
%ADD16O,1.700000X1.700000*%
%ADD17RoundRect,0.218750X-0.218750X-0.381250X0.218750X-0.381250X0.218750X0.381250X-0.218750X0.381250X0*%
%ADD18RoundRect,0.250000X-0.262500X-0.450000X0.262500X-0.450000X0.262500X0.450000X-0.262500X0.450000X0*%
%ADD19RoundRect,0.150000X0.825000X0.150000X-0.825000X0.150000X-0.825000X-0.150000X0.825000X-0.150000X0*%
%ADD20RoundRect,0.250000X0.250000X0.475000X-0.250000X0.475000X-0.250000X-0.475000X0.250000X-0.475000X0*%
%ADD21C,3.800000*%
%ADD22RoundRect,0.250000X0.262500X0.450000X-0.262500X0.450000X-0.262500X-0.450000X0.262500X-0.450000X0*%
%ADD23R,1.200000X0.900000*%
%ADD24R,1.350000X0.400000*%
%ADD25R,1.900000X1.200000*%
%ADD26R,1.900000X1.500000*%
%ADD27C,1.450000*%
%ADD28O,1.900000X1.200000*%
%ADD29R,2.900000X5.400000*%
%ADD30R,2.000000X4.600000*%
%ADD31O,2.000000X4.200000*%
%ADD32O,4.200000X2.000000*%
%ADD33RoundRect,0.250000X-0.250000X-0.475000X0.250000X-0.475000X0.250000X0.475000X-0.250000X0.475000X0*%
%ADD34R,2.200000X1.200000*%
%ADD35R,6.400000X5.800000*%
%ADD36R,4.600000X1.100000*%
%ADD37R,9.400000X10.800000*%
G04 APERTURE END LIST*
D10*
%TO.C,C22*%
X113538000Y-86043500D03*
X113538000Y-87943500D03*
%TD*%
D11*
%TO.C,C8*%
X122428000Y-67752000D03*
X122428000Y-65852000D03*
%TD*%
D12*
%TO.C,D2*%
X117982000Y-71374000D03*
X114682000Y-71374000D03*
%TD*%
D13*
%TO.C,R9*%
X120396000Y-67714500D03*
X120396000Y-65889500D03*
%TD*%
D12*
%TO.C,D3*%
X126110000Y-73660000D03*
X122810000Y-73660000D03*
%TD*%
%TO.C,D5*%
X112396000Y-90041500D03*
X115696000Y-90041500D03*
%TD*%
D10*
%TO.C,C2*%
X105156000Y-62042000D03*
X105156000Y-63942000D03*
%TD*%
%TO.C,C20*%
X95504000Y-86934000D03*
X95504000Y-88834000D03*
%TD*%
%TO.C,C18*%
X99568000Y-86934000D03*
X99568000Y-88834000D03*
%TD*%
D13*
%TO.C,R12*%
X97536000Y-91161000D03*
X97536000Y-92986000D03*
%TD*%
%TO.C,R2*%
X105156000Y-65635500D03*
X105156000Y-67460500D03*
%TD*%
D14*
%TO.C,L2*%
X114808000Y-93218000D03*
X114808000Y-103118000D03*
%TD*%
D11*
%TO.C,C9*%
X140208000Y-70292000D03*
X140208000Y-68392000D03*
%TD*%
D15*
%TO.C,J2*%
X143281000Y-68595000D03*
D16*
X143281000Y-71135000D03*
X143281000Y-73675000D03*
%TD*%
D13*
%TO.C,R13*%
X95504000Y-91161000D03*
X95504000Y-92986000D03*
%TD*%
%TO.C,R6*%
X119888000Y-69445500D03*
X119888000Y-71270500D03*
%TD*%
D15*
%TO.C,J4*%
X98298000Y-77470000D03*
D16*
X95758000Y-77470000D03*
%TD*%
D17*
%TO.C,FB2*%
X119079500Y-90170000D03*
X121204500Y-90170000D03*
%TD*%
D13*
%TO.C,R10*%
X120396000Y-61571500D03*
X120396000Y-63396500D03*
%TD*%
D18*
%TO.C,R7*%
X128373500Y-64008000D03*
X130198500Y-64008000D03*
%TD*%
D12*
%TO.C,D1*%
X132970000Y-73406000D03*
X136270000Y-73406000D03*
%TD*%
D17*
%TO.C,FB1*%
X121619500Y-71374000D03*
X123744500Y-71374000D03*
%TD*%
D10*
%TO.C,C7*%
X124460000Y-65852000D03*
X124460000Y-67752000D03*
%TD*%
D19*
%TO.C,U3*%
X106869000Y-93724500D03*
X106869000Y-92454500D03*
X106869000Y-91184500D03*
X106869000Y-89914500D03*
X101919000Y-89914500D03*
X101919000Y-91184500D03*
X101919000Y-92454500D03*
X101919000Y-93724500D03*
%TD*%
D13*
%TO.C,R1*%
X107188000Y-65635500D03*
X107188000Y-67460500D03*
%TD*%
D20*
%TO.C,C14*%
X131506000Y-90932000D03*
X129606000Y-90932000D03*
%TD*%
D21*
%TO.C,H3*%
X93472000Y-107696000D03*
%TD*%
D19*
%TO.C,U1*%
X114489000Y-68961000D03*
X114489000Y-67691000D03*
X114489000Y-66421000D03*
X114489000Y-65151000D03*
X109539000Y-65151000D03*
X109539000Y-66421000D03*
X109539000Y-67691000D03*
X109539000Y-68961000D03*
%TD*%
D11*
%TO.C,C5*%
X117856000Y-75372000D03*
X117856000Y-73472000D03*
%TD*%
D13*
%TO.C,R11*%
X99568000Y-91161000D03*
X99568000Y-92986000D03*
%TD*%
D22*
%TO.C,R5*%
X107338500Y-69342000D03*
X105513500Y-69342000D03*
%TD*%
D10*
%TO.C,C10*%
X138176000Y-64836000D03*
X138176000Y-66736000D03*
%TD*%
D21*
%TO.C,H1*%
X144526000Y-61214000D03*
%TD*%
D12*
%TO.C,D6*%
X131190000Y-75184000D03*
X127890000Y-75184000D03*
%TD*%
D18*
%TO.C,R8*%
X124563500Y-64008000D03*
X126388500Y-64008000D03*
%TD*%
%TO.C,R15*%
X122277500Y-92710000D03*
X124102500Y-92710000D03*
%TD*%
D22*
%TO.C,R17*%
X124102500Y-97028000D03*
X122277500Y-97028000D03*
%TD*%
D10*
%TO.C,C1*%
X107188000Y-62042000D03*
X107188000Y-63942000D03*
%TD*%
D23*
%TO.C,D4*%
X143764000Y-81914000D03*
X143764000Y-78614000D03*
%TD*%
D10*
%TO.C,C23*%
X116078000Y-86043500D03*
X116078000Y-87943500D03*
%TD*%
D24*
%TO.C,J3*%
X94426500Y-68169000D03*
X94426500Y-68819000D03*
X94426500Y-69469000D03*
X94426500Y-70119000D03*
X94426500Y-70769000D03*
D25*
X91726500Y-72369000D03*
D26*
X91726500Y-68469000D03*
D27*
X94426500Y-66969000D03*
D28*
X91726500Y-72969000D03*
X91726500Y-65969000D03*
D26*
X91726500Y-70469000D03*
D25*
X91726500Y-66569000D03*
D27*
X94426500Y-71969000D03*
%TD*%
D13*
%TO.C,R3*%
X103124000Y-65635500D03*
X103124000Y-67460500D03*
%TD*%
D10*
%TO.C,C21*%
X93472000Y-86934000D03*
X93472000Y-88834000D03*
%TD*%
%TO.C,C24*%
X109220000Y-88837500D03*
X109220000Y-90737500D03*
%TD*%
D29*
%TO.C,L1*%
X101982500Y-76962000D03*
X111882500Y-76962000D03*
%TD*%
D21*
%TO.C,H4*%
X144526000Y-107696000D03*
%TD*%
D13*
%TO.C,R4*%
X101092000Y-65635500D03*
X101092000Y-67460500D03*
%TD*%
D10*
%TO.C,C12*%
X117094000Y-65598000D03*
X117094000Y-67498000D03*
%TD*%
D30*
%TO.C,J1*%
X104394000Y-100315000D03*
D31*
X98094000Y-100315000D03*
D32*
X101494000Y-105115000D03*
%TD*%
D10*
%TO.C,C3*%
X103124000Y-62042000D03*
X103124000Y-63942000D03*
%TD*%
D11*
%TO.C,C15*%
X136906000Y-80452000D03*
X136906000Y-78552000D03*
%TD*%
D22*
%TO.C,R16*%
X124102500Y-94869000D03*
X122277500Y-94869000D03*
%TD*%
D11*
%TO.C,C17*%
X141224000Y-80452000D03*
X141224000Y-78552000D03*
%TD*%
%TO.C,C6*%
X115570000Y-75372000D03*
X115570000Y-73472000D03*
%TD*%
D33*
%TO.C,C13*%
X129606000Y-88900000D03*
X131506000Y-88900000D03*
%TD*%
D10*
%TO.C,C19*%
X97536000Y-86934000D03*
X97536000Y-88834000D03*
%TD*%
%TO.C,C4*%
X101092000Y-62042000D03*
X101092000Y-63942000D03*
%TD*%
D34*
%TO.C,U2*%
X126864000Y-66300000D03*
D35*
X133164000Y-68580000D03*
D34*
X126864000Y-70860000D03*
%TD*%
D21*
%TO.C,H2*%
X93472000Y-61214000D03*
%TD*%
D11*
%TO.C,C11*%
X138176000Y-70292000D03*
X138176000Y-68392000D03*
%TD*%
D36*
%TO.C,U4*%
X133356000Y-84582000D03*
D37*
X124206000Y-82042000D03*
D36*
X133356000Y-79502000D03*
%TD*%
D11*
%TO.C,C16*%
X139065000Y-80452000D03*
X139065000Y-78552000D03*
%TD*%
D13*
%TO.C,R14*%
X93472000Y-91161000D03*
X93472000Y-92986000D03*
%TD*%
M02*
