M48
; DRILL file {KiCad (6.0.2)} date Tue Dec 20 22:03:32 2022
; FORMAT={-:-/ absolute / inch / decimal}
; #@! TF.CreationDate,2022-12-20T22:03:32-08:00
; #@! TF.GenerationSoftware,Kicad,Pcbnew,(6.0.2)
; #@! TF.FileFunction,Plated,1,2,PTH
FMAT,2
INCH
; #@! TA.AperFunction,Plated,PTH,ViaDrill
T1C0.0157
; #@! TA.AperFunction,Plated,PTH,ComponentDrill
T2C0.0236
; #@! TA.AperFunction,Plated,PTH,ComponentDrill
T3C0.0335
; #@! TA.AperFunction,Plated,PTH,ComponentDrill
T4C0.0394
; #@! TA.AperFunction,Plated,PTH,ComponentDrill
T5C0.0866
%
G90
G05
T1
X3.655Y-3.945
X3.655Y-4.0237
X3.655Y-4.095
X3.68Y-3.545
X3.695Y-3.28
X3.695Y-3.33
X3.705Y-3.945
X3.705Y-4.0237
X3.705Y-4.095
X3.76Y-3.545
X3.7737Y-3.28
X3.7737Y-3.33
X3.81Y-2.78
X3.81Y-2.85
X3.84Y-3.545
X3.845Y-3.28
X3.845Y-3.33
X3.92Y-3.545
X3.985Y-3.275
X4.0Y-3.31
X4.0Y-3.35
X4.0Y-3.385
X4.0Y-3.42
X4.0Y-3.455
X4.025Y-2.37
X4.095Y-3.55
X4.0963Y-2.37
X4.11Y-3.28
X4.11Y-3.3513
X4.11Y-3.43
X4.11Y-3.76
X4.16Y-3.28
X4.16Y-3.3513
X4.16Y-3.43
X4.175Y-2.37
X4.29Y-3.23
X4.29Y-3.28
X4.33Y-2.54
X4.34Y-2.395
X4.34Y-2.445
X4.3687Y-3.23
X4.3687Y-3.28
X4.41Y-2.585
X4.41Y-2.635
X4.4113Y-2.395
X4.4113Y-2.445
X4.44Y-3.23
X4.44Y-3.28
X4.44Y-4.21
X4.44Y-4.26
X4.49Y-2.395
X4.49Y-2.445
X4.5113Y-4.21
X4.5113Y-4.26
X4.56Y-3.1
X4.56Y-3.1787
X4.56Y-3.25
X4.5842Y-2.7058
X4.59Y-4.21
X4.59Y-4.26
X4.6Y-2.51
X4.61Y-3.1
X4.61Y-3.1787
X4.61Y-3.25
X4.62Y-2.73
X4.65Y-2.51
X4.685Y-2.665
X4.7Y-3.7
X4.7Y-3.7787
X4.7Y-3.85
X4.75Y-3.7
X4.75Y-3.7787
X4.75Y-3.85
X4.8187Y-2.39
X4.8187Y-2.44
X4.84Y-4.035
X4.84Y-4.1113
X4.84Y-4.19
X4.89Y-2.39
X4.89Y-2.44
X4.89Y-4.035
X4.89Y-4.1113
X4.89Y-4.19
X5.07Y-2.795
X5.145Y-2.87
X5.38Y-2.41
X5.38Y-2.46
X5.395Y-3.25
X5.395Y-3.3
X5.4Y-3.5
X5.4Y-3.6
X5.4Y-3.7
X5.43Y-2.84
X5.43Y-2.9187
X5.4587Y-2.41
X5.4587Y-2.46
X5.4737Y-3.25
X5.4737Y-3.3
X5.48Y-2.84
X5.48Y-2.9187
X5.535Y-2.41
X5.535Y-2.46
X5.55Y-3.25
X5.55Y-3.3
X5.6Y-3.5
X5.6Y-3.6
X5.6Y-3.7
T3
X3.7176Y-2.6366
X3.7176Y-2.8334
T4
X3.77Y-3.05
X3.87Y-3.05
X5.641Y-2.7006
X5.641Y-2.8006
X5.641Y-2.9006
T5
X3.68Y-2.41
X3.68Y-4.24
X5.69Y-2.41
X5.69Y-4.24
T2
G00X3.5975Y-2.5972
M15
G01X3.6251Y-2.5972
M16
G05
G00X3.6251Y-2.8728
M15
G01X3.5975Y-2.8728
M16
G05
T4
G00X3.862Y-3.9061
M15
G01X3.862Y-3.9927
M16
G05
G00X4.0391Y-4.1384
M15
G01X3.9525Y-4.1384
M16
G05
G00X4.11Y-3.8982
M15
G01X4.11Y-4.0006
M16
G05
T0
M30
