%TF.GenerationSoftware,KiCad,Pcbnew,(6.0.2)*%
%TF.CreationDate,2022-12-20T22:03:32-08:00*%
%TF.ProjectId,split_supply_generator,73706c69-745f-4737-9570-706c795f6765,rev?*%
%TF.SameCoordinates,Original*%
%TF.FileFunction,Legend,Bot*%
%TF.FilePolarity,Positive*%
%FSLAX46Y46*%
G04 Gerber Fmt 4.6, Leading zero omitted, Abs format (unit mm)*
G04 Created by KiCad (PCBNEW (6.0.2)) date 2022-12-20 22:03:32*
%MOMM*%
%LPD*%
G01*
G04 APERTURE LIST*
%ADD10C,0.150000*%
%ADD11R,1.700000X1.700000*%
%ADD12O,1.700000X1.700000*%
%ADD13C,3.800000*%
%ADD14C,1.450000*%
%ADD15O,1.900000X1.200000*%
%ADD16R,2.000000X4.600000*%
%ADD17O,2.000000X4.200000*%
%ADD18O,4.200000X2.000000*%
G04 APERTURE END LIST*
D10*
X95249904Y-79764000D02*
X95345142Y-79716380D01*
X95488000Y-79716380D01*
X95630857Y-79764000D01*
X95726095Y-79859238D01*
X95773714Y-79954476D01*
X95821333Y-80144952D01*
X95821333Y-80287809D01*
X95773714Y-80478285D01*
X95726095Y-80573523D01*
X95630857Y-80668761D01*
X95488000Y-80716380D01*
X95392761Y-80716380D01*
X95249904Y-80668761D01*
X95202285Y-80621142D01*
X95202285Y-80287809D01*
X95392761Y-80287809D01*
X94773714Y-80716380D02*
X94773714Y-79716380D01*
X94202285Y-80716380D01*
X94202285Y-79716380D01*
X93726095Y-80716380D02*
X93726095Y-79716380D01*
X93488000Y-79716380D01*
X93345142Y-79764000D01*
X93249904Y-79859238D01*
X93202285Y-79954476D01*
X93154666Y-80144952D01*
X93154666Y-80287809D01*
X93202285Y-80478285D01*
X93249904Y-80573523D01*
X93345142Y-80668761D01*
X93488000Y-80716380D01*
X93726095Y-80716380D01*
X99885333Y-79716380D02*
X99552000Y-80716380D01*
X99218666Y-79716380D01*
X98313904Y-80621142D02*
X98361523Y-80668761D01*
X98504380Y-80716380D01*
X98599619Y-80716380D01*
X98742476Y-80668761D01*
X98837714Y-80573523D01*
X98885333Y-80478285D01*
X98932952Y-80287809D01*
X98932952Y-80144952D01*
X98885333Y-79954476D01*
X98837714Y-79859238D01*
X98742476Y-79764000D01*
X98599619Y-79716380D01*
X98504380Y-79716380D01*
X98361523Y-79764000D01*
X98313904Y-79811619D01*
X97313904Y-80621142D02*
X97361523Y-80668761D01*
X97504380Y-80716380D01*
X97599619Y-80716380D01*
X97742476Y-80668761D01*
X97837714Y-80573523D01*
X97885333Y-80478285D01*
X97932952Y-80287809D01*
X97932952Y-80144952D01*
X97885333Y-79954476D01*
X97837714Y-79859238D01*
X97742476Y-79764000D01*
X97599619Y-79716380D01*
X97504380Y-79716380D01*
X97361523Y-79764000D01*
X97313904Y-79811619D01*
X146526190Y-70572380D02*
X146430952Y-70572380D01*
X146335714Y-70620000D01*
X146288095Y-70667619D01*
X146240476Y-70762857D01*
X146192857Y-70953333D01*
X146192857Y-71191428D01*
X146240476Y-71381904D01*
X146288095Y-71477142D01*
X146335714Y-71524761D01*
X146430952Y-71572380D01*
X146526190Y-71572380D01*
X146621428Y-71524761D01*
X146669047Y-71477142D01*
X146716666Y-71381904D01*
X146764285Y-71191428D01*
X146764285Y-70953333D01*
X146716666Y-70762857D01*
X146669047Y-70667619D01*
X146621428Y-70620000D01*
X146526190Y-70572380D01*
X145907142Y-70572380D02*
X145573809Y-71572380D01*
X145240476Y-70572380D01*
X146716666Y-66111428D02*
X145954762Y-66111428D01*
X146335714Y-66492380D02*
X146335714Y-65730476D01*
X144954762Y-66492380D02*
X145526190Y-66492380D01*
X145240476Y-66492380D02*
X145240476Y-65492380D01*
X145335714Y-65635238D01*
X145430952Y-65730476D01*
X145526190Y-65778095D01*
X144050000Y-65492380D02*
X144526190Y-65492380D01*
X144573809Y-65968571D01*
X144526190Y-65920952D01*
X144430952Y-65873333D01*
X144192857Y-65873333D01*
X144097619Y-65920952D01*
X144050000Y-65968571D01*
X144002381Y-66063809D01*
X144002381Y-66301904D01*
X144050000Y-66397142D01*
X144097619Y-66444761D01*
X144192857Y-66492380D01*
X144430952Y-66492380D01*
X144526190Y-66444761D01*
X144573809Y-66397142D01*
X143716666Y-65492380D02*
X143383333Y-66492380D01*
X143050000Y-65492380D01*
X146716666Y-76525428D02*
X145954762Y-76525428D01*
X144954762Y-76906380D02*
X145526190Y-76906380D01*
X145240476Y-76906380D02*
X145240476Y-75906380D01*
X145335714Y-76049238D01*
X145430952Y-76144476D01*
X145526190Y-76192095D01*
X144050000Y-75906380D02*
X144526190Y-75906380D01*
X144573809Y-76382571D01*
X144526190Y-76334952D01*
X144430952Y-76287333D01*
X144192857Y-76287333D01*
X144097619Y-76334952D01*
X144050000Y-76382571D01*
X144002381Y-76477809D01*
X144002381Y-76715904D01*
X144050000Y-76811142D01*
X144097619Y-76858761D01*
X144192857Y-76906380D01*
X144430952Y-76906380D01*
X144526190Y-76858761D01*
X144573809Y-76811142D01*
X143716666Y-75906380D02*
X143383333Y-76906380D01*
X143050000Y-75906380D01*
%LPC*%
D11*
%TO.C,J2*%
X143281000Y-68595000D03*
D12*
X143281000Y-71135000D03*
X143281000Y-73675000D03*
%TD*%
D11*
%TO.C,J4*%
X98298000Y-77470000D03*
D12*
X95758000Y-77470000D03*
%TD*%
D13*
%TO.C,H3*%
X93472000Y-107696000D03*
%TD*%
%TO.C,H1*%
X144526000Y-61214000D03*
%TD*%
D14*
%TO.C,J3*%
X94426500Y-66969000D03*
D15*
X91726500Y-72969000D03*
X91726500Y-65969000D03*
D14*
X94426500Y-71969000D03*
%TD*%
D13*
%TO.C,H4*%
X144526000Y-107696000D03*
%TD*%
D16*
%TO.C,J1*%
X104394000Y-100315000D03*
D17*
X98094000Y-100315000D03*
D18*
X101494000Y-105115000D03*
%TD*%
D13*
%TO.C,H2*%
X93472000Y-61214000D03*
%TD*%
M02*
